<?xml version="1.0" encoding="UTF-8" standalone="no"?>
<!DOCTYPE svg PUBLIC "-//W3C//DTD SVG 1.1//EN"
 "http://www.w3.org/Graphics/SVG/1.1/DTD/svg11.dtd">
<!-- Generated by graphviz version 2.50.0 (20211204.2007)
 -->
<!-- Pages: 1 -->
<svg width="444pt" height="247pt"
 viewBox="0.00 0.00 443.80 247.40" xmlns="http://www.w3.org/2000/svg" xmlns:xlink="http://www.w3.org/1999/xlink">
<g id="graph0" class="graph" transform="scale(1 1) rotate(0) translate(4 243.4)">
<polygon fill="white" stroke="transparent" points="-4,4 -4,-243.4 439.8,-243.4 439.8,4 -4,4"/>
<!-- 0 -->
<g id="node1" class="node">
<title>0</title>
<ellipse fill="#ff8247" stroke="black" cx="160.6" cy="-16" rx="16" ry="16"/>
<text text-anchor="middle" x="160.6" y="-12.9" font-family="Times,serif" font-size="12.00">A</text>
</g>
<!-- 1 -->
<g id="node2" class="node">
<title>1</title>
<ellipse fill="#ffb5c5" stroke="black" cx="95.8" cy="-80.8" rx="16" ry="16"/>
<text text-anchor="middle" x="95.8" y="-77.7" font-family="Times,serif" font-size="12.00" fill="firebrick">B</text>
<text text-anchor="middle" x="71.8" y="-100.2" font-family="Times,serif" font-size="12.00" fill="firebrick">A3</text>
</g>
<!-- 0&#45;&#45;1 -->
<g id="edge1" class="edge">
<title>0&#45;&#45;1</title>
<path fill="none" stroke="black" d="M149.02,-27.58C137.22,-39.38 119.04,-57.56 107.28,-69.32"/>
<text text-anchor="middle" x="124.65" y="-52.25" font-family="Times,serif" font-size="14.00">3</text>
</g>
<!-- 3 -->
<g id="node4" class="node">
<title>3</title>
<ellipse fill="white" stroke="black" cx="274" cy="-48.4" rx="16" ry="16"/>
<text text-anchor="middle" x="274" y="-45.3" font-family="Times,serif" font-size="12.00" fill="firebrick">D</text>
<text text-anchor="middle" x="250" y="-67.8" font-family="Times,serif" font-size="12.00" fill="firebrick">A6</text>
</g>
<!-- 0&#45;&#45;3 -->
<g id="edge2" class="edge">
<title>0&#45;&#45;3</title>
<path fill="none" stroke="black" d="M176.37,-20.51C198.03,-26.7 236.77,-37.76 258.37,-43.93"/>
<text text-anchor="middle" x="213.87" y="-36.02" font-family="Times,serif" font-size="14.00">6</text>
</g>
<!-- 2 -->
<g id="node3" class="node">
<title>2</title>
<ellipse fill="#ffb5c5" stroke="black" cx="31" cy="-113.2" rx="16" ry="16"/>
<text text-anchor="middle" x="31" y="-110.1" font-family="Times,serif" font-size="12.00" fill="firebrick">C</text>
<text text-anchor="middle" x="7.5" y="-132.6" font-family="Times,serif" font-size="12.00" fill="firebrick">B5</text>
</g>
<!-- 1&#45;&#45;2 -->
<g id="edge3" class="edge">
<title>1&#45;&#45;2</title>
<path fill="none" stroke="black" d="M81.42,-87.99C70.68,-93.36 56.07,-100.67 45.34,-106.03"/>
<text text-anchor="middle" x="59.88" y="-100.81" font-family="Times,serif" font-size="14.00">2</text>
</g>
<!-- 4 -->
<g id="node5" class="node">
<title>4</title>
<ellipse fill="white" stroke="black" cx="225.4" cy="-113.2" rx="16" ry="16"/>
<text text-anchor="middle" x="225.4" y="-110.1" font-family="Times,serif" font-size="12.00" fill="firebrick">E</text>
<text text-anchor="middle" x="201.9" y="-132.6" font-family="Times,serif" font-size="12.00" fill="firebrick">B9</text>
</g>
<!-- 1&#45;&#45;4 -->
<g id="edge5" class="edge">
<title>1&#45;&#45;4</title>
<path fill="none" stroke="black" d="M111.43,-84.71C136.34,-90.94 184.77,-103.04 209.71,-109.28"/>
<text text-anchor="middle" x="157.07" y="-100.79" font-family="Times,serif" font-size="14.00">6</text>
</g>
<!-- 5 -->
<g id="node6" class="node">
<title>5</title>
<ellipse fill="#ffb5c5" stroke="black" cx="160.6" cy="-178" rx="16" ry="16"/>
<text text-anchor="middle" x="160.6" y="-174.9" font-family="Times,serif" font-size="12.00" fill="firebrick">F</text>
<text text-anchor="middle" x="137.1" y="-197.4" font-family="Times,serif" font-size="12.00" fill="firebrick">C9</text>
</g>
<!-- 1&#45;&#45;5 -->
<g id="edge4" class="edge">
<title>1&#45;&#45;5</title>
<path fill="none" stroke="black" d="M104.81,-94.32C117.19,-112.89 139.33,-146.09 151.67,-164.6"/>
<text text-anchor="middle" x="121.24" y="-133.26" font-family="Times,serif" font-size="14.00">20</text>
</g>
<!-- 2&#45;&#45;5 -->
<g id="edge6" class="edge">
<title>2&#45;&#45;5</title>
<path fill="none" stroke="black" d="M45.36,-120.38C70.28,-132.84 121.21,-158.31 146.17,-170.79"/>
<text text-anchor="middle" x="92.27" y="-149.38" font-family="Times,serif" font-size="14.00">4</text>
</g>
<!-- 3&#45;&#45;4 -->
<g id="edge7" class="edge">
<title>3&#45;&#45;4</title>
<path fill="none" stroke="black" d="M264.4,-61.2C255.99,-72.42 243.82,-88.64 235.32,-99.98"/>
<text text-anchor="middle" x="246.36" y="-84.39" font-family="Times,serif" font-size="14.00">4</text>
</g>
<!-- 6 -->
<g id="node7" class="node">
<title>6</title>
<ellipse fill="white" stroke="black" cx="322.6" cy="-113.2" rx="16" ry="16"/>
<text text-anchor="middle" x="322.6" y="-110.1" font-family="Times,serif" font-size="12.00" fill="firebrick">G</text>
<text text-anchor="middle" x="295.6" y="-132.6" font-family="Times,serif" font-size="12.00" fill="firebrick">D13</text>
</g>
<!-- 3&#45;&#45;6 -->
<g id="edge8" class="edge">
<title>3&#45;&#45;6</title>
<path fill="none" stroke="black" d="M283.6,-61.2C292.01,-72.42 304.18,-88.64 312.68,-99.98"/>
<text text-anchor="middle" x="294.64" y="-84.39" font-family="Times,serif" font-size="14.00">7</text>
</g>
<!-- 7 -->
<g id="node8" class="node">
<title>7</title>
<ellipse fill="#ffb5c5" stroke="black" cx="322.6" cy="-210.4" rx="16" ry="16"/>
<text text-anchor="middle" x="322.6" y="-207.3" font-family="Times,serif" font-size="12.00" fill="firebrick">H</text>
<text text-anchor="middle" x="297.1" y="-229.8" font-family="Times,serif" font-size="12.00" fill="firebrick">F12</text>
</g>
<!-- 4&#45;&#45;7 -->
<g id="edge9" class="edge">
<title>4&#45;&#45;7</title>
<path fill="none" stroke="black" d="M236.93,-124.73C255.64,-143.44 292.39,-180.19 311.08,-198.88"/>
<text text-anchor="middle" x="267.01" y="-165.61" font-family="Times,serif" font-size="14.00">22</text>
</g>
<!-- 5&#45;&#45;7 -->
<g id="edge10" class="edge">
<title>5&#45;&#45;7</title>
<path fill="none" stroke="black" d="M176.43,-181.17C207.32,-187.34 275.33,-200.95 306.47,-207.17"/>
<text text-anchor="middle" x="237.95" y="-197.97" font-family="Times,serif" font-size="14.00">3</text>
</g>
<!-- 6&#45;&#45;7 -->
<g id="edge11" class="edge">
<title>6&#45;&#45;7</title>
<path fill="none" stroke="black" d="M322.6,-129.25C322.6,-147.26 322.6,-176.31 322.6,-194.33"/>
<text text-anchor="middle" x="315.6" y="-165.59" font-family="Times,serif" font-size="14.00">19</text>
</g>
<!-- 8 -->
<g id="node9" class="node">
<title>8</title>
<ellipse fill="lightgreen" stroke="black" cx="419.8" cy="-178" rx="16" ry="16"/>
<text text-anchor="middle" x="419.8" y="-174.9" font-family="Times,serif" font-size="12.00" fill="firebrick">I</text>
<text text-anchor="middle" x="392.8" y="-197.4" font-family="Times,serif" font-size="12.00" fill="firebrick">H30</text>
</g>
<!-- 6&#45;&#45;8 -->
<g id="edge12" class="edge">
<title>6&#45;&#45;8</title>
<path fill="none" stroke="black" d="M336.12,-122.21C354.69,-134.59 387.89,-156.73 406.4,-169.07"/>
<text text-anchor="middle" x="364.26" y="-149.44" font-family="Times,serif" font-size="14.00">21</text>
</g>
<!-- 7&#45;&#45;8 -->
<g id="edge13" class="edge">
<title>7&#45;&#45;8</title>
<path fill="none" stroke="black" d="M337.79,-205.34C355.94,-199.29 386.15,-189.22 404.4,-183.13"/>
<text text-anchor="middle" x="364.09" y="-198.04" font-family="Times,serif" font-size="14.00">18</text>
</g>
</g>
</svg>
